<?xml version="1.0" encoding="utf-8"?>
<!-- Generator: Adobe Illustrator 17.0.0, SVG Export Plug-In . SVG Version: 6.00 Build 0)  -->
<!DOCTYPE svg PUBLIC "-//W3C//DTD SVG 1.1 Tiny//EN" "http://www.w3.org/Graphics/SVG/1.1/DTD/svg11-tiny.dtd">
<svg version="1.1" baseProfile="tiny" id="Layer_1" xmlns="http://www.w3.org/2000/svg" xmlns:xlink="http://www.w3.org/1999/xlink"
	 x="0px" y="0px" width="473px" height="388.081px" viewBox="0 0 473 388.081" xml:space="preserve">
<path fill="#E6E6E6" d="M283.433,346.081c-1.526-8.271-2.639-18-2.639-18h-44.341h-0.565h-43.683c0,0-1.081,9.645-2.572,18H283.433z
	"/>
<path display="none" fill="#838587" d="M1212.811,1534.966c0.024-0.278,0.019-0.765-0.022-1.065l-0.191-7.821h-4.745
	c-12.668-13-45.677-32.658-53.353-44.172c-10-15-20-102.828-20-102.828h-157h-2H820.832c0,0-10.042,87.874-20.042,102.874
	c-7.657,11.486-40.552,31.126-53.299,44.126h-5.061l-0.21,8.096c-0.02,0.24-0.22,0.627-0.22,0.853v0.051h0.445
	c0.043,0.365,0.141,0.713,0.304,1.039c4.803,9.607,218.063,16.3,234.834,16.025c16.777,0.275,230.114-6.421,234.917-16.028
	c0.163-0.325,0.261-0.672,0.304-1.036h0.009L1212.811,1534.966z"/>
<path display="none" fill="none" stroke="#4362FF" stroke-width="4" stroke-miterlimit="10" d="M1653.5,369.081h-1354
	c-25.3,0-48.5,18.752-48.5,44.052v819.948h1446V413.133C1697,387.833,1678.8,369.081,1653.5,369.081z"/>
<path fill="none" stroke="#CCCCCC" stroke-width="3" stroke-miterlimit="10" d="M170.655,368.385
	c1.343,2.686,61.408,3.632,66.097,3.555c4.691,0.077,64.344-0.282,65.688-2.968"/>
<path d="M280.794,328.081c0,0,2.824,24.642,5.649,28.879c2.791,4.186,17.437,11.532,16.422,14.446c0,0,0.005,2.561-0.041,2.652
	c-1.24,2.481-51.715,2.936-63.978,2.936c-1.149,0-1.963-0.003-2.369-0.01c-0.4,0.007-1.196,0.011-2.32,0.011
	c-12.177,0-62.762-0.458-64.004-2.942c-0.046-0.092-0.067-1.981-0.067-1.981c0.636-4.593,13.828-10.556,16.46-14.504
	c2.824-4.236,5.66-29.488,5.66-29.488h43.683h0.565H281 M280.794,325.081h-44.341h-0.565h-43.683h-2.682l-0.3,2.682
	c-1.325,11.789-3.681,25.909-5.175,28.151c-0.777,1.165-3.871,3.268-6.357,4.954c-5.156,3.497-10.026,6.802-10.579,10.792
	l-0.031,0.223l0.003,0.224c0.025,2.17,0.04,2.601,0.384,3.289c0.909,1.818,2.581,2.491,11.266,3.158
	c4.671,0.359,11.141,0.662,19.23,0.902c14.419,0.428,29.979,0.541,36.192,0.541c1.104,0,1.897-0.004,2.32-0.01
	c0.429,0.006,1.241,0.01,2.369,0.01c6.237,0,21.832-0.112,36.211-0.538c8.077-0.239,14.538-0.542,19.201-0.9
	c8.671-0.666,10.341-1.338,11.249-3.155c0.348-0.696,0.363-1.009,0.359-3.62c0.677-3.491-3.428-6.347-9.471-10.551
	c-2.914-2.027-6.542-4.551-7.455-5.921c-1.496-2.243-3.845-16.059-5.164-27.557l-0.305-2.675H280.794L280.794,325.081z"/>
<path fill="none" stroke="#000000" stroke-width="5" stroke-miterlimit="10" d="M463.5,312.145c0,7.972-6.463,14.435-14.435,14.435
	H22.935c-7.972,0-14.435-6.463-14.435-14.435V25.016c0-7.972,6.463-14.435,14.435-14.435h426.129
	c7.972,0,14.435,6.463,14.435,14.435V312.145z"/>
<rect x="26.5" y="27.581" fill="none" stroke="#999999" stroke-width="3" stroke-miterlimit="10" width="420" height="239"/>
<circle fill="#ED1C24" cx="236.5" cy="301.983" r="7.285"/>
<circle fill="none" stroke="#888888" stroke-miterlimit="10" cx="236.5" cy="18.871" r="1.883"/>
<line fill="none" stroke="#4D4D4D" stroke-width="3" stroke-miterlimit="10" x1="10" y1="282.581" x2="463" y2="282.581"/>
<g>
	<g>
		<path fill="#EEEEEE" d="M1722.137,374.154c-4.157,0.068-47.869-0.594-65.457-2.401c-0.679,0.812-1.126,1.603-1.231,2.357
			c0,0,0.021,1.889,0.068,1.981c1.357,2.713,61.588,3.009,66.324,2.932c4.738,0.078,64.991-0.21,66.347-2.923
			c0.046-0.092,0.041-2.648,0.041-2.648c0.119-0.341,0.016-0.744-0.249-1.193C1771.068,373.972,1726.36,374.224,1722.137,374.154z"
			/>
		<path fill="#DDDDDD" d="M1771.808,359.478c-2.824-4.236-5.649-28.398-5.649-28.398h-44.341h-0.565h-43.683
			c0,0-2.836,24.77-5.66,29.007c-2.2,3.301-11.772,7.764-15.229,11.898c17.588,1.806,61.3,2.353,65.457,2.284
			c4.223,0.069,48.931-0.009,65.843-1.722C1785.975,369.153,1774.272,363.175,1771.808,359.478z"/>
		<path fill="#CCCCCC" d="M1677.57,331.081c0,0-1.13,9-2.674,17h94.01c-1.581-8-2.747-17-2.747-17h-44.341h-0.565H1677.57z"/>
	</g>
	<path d="M1949,30.189c0-7.972-6.515-15.108-14.487-15.108h-425.296c-7.972,0-15.216,7.136-15.216,15.108v256.892h455V30.189z"/>
	<rect x="1513" y="32.081" fill="#EEEEEE" width="420" height="239"/>
	<path fill="#EEEEEE" d="M1494,287.081v29.895c0,7.972,7.244,14.105,15.216,14.105h425.296c7.972,0,14.487-6.133,14.487-14.105
		v-29.895H1494z"/>
	<circle fill="#DDDDDD" cx="1721.5" cy="307.629" r="6.491"/>
	<circle fill="#FFFFFF" cx="1721.5" cy="23.059" r="1.883"/>
	<rect x="1513" y="32.081" fill="#DDDDDD" width="420" height="16"/>
	<g>
		<circle fill="#AAAAAA" cx="1523.418" cy="40.175" r="3.487"/>
		<circle fill="#AAAAAA" cx="1532.453" cy="40.175" r="3.487"/>
		<circle fill="#AAAAAA" cx="1542.019" cy="40.175" r="3.487"/>
	</g>
	<rect x="1616" y="36.081" fill="#FFFFFF" width="214" height="8"/>
	<rect x="1884" y="36.081" fill="#FFFFFF" width="12" height="8"/>
	<rect x="1898" y="36.081" fill="#FFFFFF" width="13" height="8"/>
	<rect x="1914" y="36.081" fill="#FFFFFF" width="11" height="8"/>
	<rect x="1567" y="66.081" fill="#FFFFFF" width="311" height="205"/>
	<rect x="1567" y="66.081" fill="#39A9B5" width="311" height="13"/>
	<rect x="1578" y="88.081" fill="#EF564A" width="289" height="64"/>
	<rect x="1578" y="159.081" fill="#EF564A" width="91" height="45"/>
	<rect x="1677" y="159.081" fill="#EF564A" width="91" height="45"/>
	<rect x="1775" y="159.081" fill="#EF564A" width="92" height="45"/>
	<line fill="none" stroke="#69B539" stroke-width="4" stroke-miterlimit="10" x1="1578" y1="218.081" x2="1655" y2="218.081"/>
	<line fill="none" stroke="#69B539" stroke-width="4" stroke-miterlimit="10" x1="1578" y1="225.081" x2="1663" y2="225.081"/>
	<line fill="none" stroke="#69B539" stroke-width="4" stroke-miterlimit="10" x1="1578" y1="232.081" x2="1669" y2="232.081"/>
	<line fill="none" stroke="#69B539" stroke-width="4" stroke-miterlimit="10" x1="1578" y1="239.081" x2="1665" y2="239.081"/>
	<line fill="none" stroke="#69B539" stroke-width="4" stroke-miterlimit="10" x1="1578" y1="246.081" x2="1636" y2="246.081"/>
	<line fill="none" stroke="#DEE347" stroke-width="4" stroke-miterlimit="10" x1="1677" y1="218.081" x2="1754" y2="218.081"/>
	<line fill="none" stroke="#DEE347" stroke-width="4" stroke-miterlimit="10" x1="1677" y1="225.081" x2="1762" y2="225.081"/>
	<line fill="none" stroke="#DEE347" stroke-width="4" stroke-miterlimit="10" x1="1677" y1="232.081" x2="1769" y2="232.081"/>
	<line fill="none" stroke="#DEE347" stroke-width="4" stroke-miterlimit="10" x1="1677" y1="239.081" x2="1764" y2="239.081"/>
	<line fill="none" stroke="#DEE347" stroke-width="4" stroke-miterlimit="10" x1="1677" y1="246.081" x2="1735" y2="246.081"/>
	<line fill="none" stroke="#A47BF6" stroke-width="4" stroke-miterlimit="10" x1="1776" y1="218.081" x2="1854" y2="218.081"/>
	<line fill="none" stroke="#A47BF6" stroke-width="4" stroke-miterlimit="10" x1="1776" y1="225.081" x2="1861" y2="225.081"/>
	<line fill="none" stroke="#A47BF6" stroke-width="4" stroke-miterlimit="10" x1="1776" y1="232.081" x2="1868" y2="232.081"/>
	<line fill="none" stroke="#A47BF6" stroke-width="4" stroke-miterlimit="10" x1="1776" y1="239.081" x2="1863" y2="239.081"/>
	<line fill="none" stroke="#A47BF6" stroke-width="4" stroke-miterlimit="10" x1="1776" y1="246.081" x2="1834" y2="246.081"/>
</g>
<path fill="#ED1C24" d="M217.875,183.081c-5.5,0-12.239-3.771-14.976-8.541l-22.173-38.586c-2.737-4.771-2.737-12.544,0-17.315
	l22.173-38.768c2.737-4.771,9.476-8.79,14.976-8.79h44.251c5.5,0,12.239,4.036,14.976,8.807l22.173,38.718
	c2.737,4.771,2.737,12.611,0,17.381l-22.173,38.536c-2.737,4.771-9.476,8.558-14.976,8.558H217.875z"/>
<g>
	<path fill="#CD1C24" d="M219.575,150.234c4.177,2.139,10.595,4.279,17.217,4.279c7.131,0,10.9-2.954,10.9-7.437
		c0-4.279-3.26-6.723-11.511-9.677c-11.41-3.974-18.847-10.29-18.847-20.273c0-11.715,9.78-20.68,25.978-20.68
		c7.743,0,13.447,1.63,17.522,3.464l-3.464,12.53c-2.75-1.324-7.64-3.26-14.364-3.26s-9.984,3.056-9.984,6.621
		c0,4.381,3.871,6.317,12.734,9.678c12.124,4.483,17.828,10.798,17.828,20.476c0,11.511-8.863,21.291-27.709,21.291
		c-7.844,0-15.587-2.037-19.458-4.177L219.575,150.234z"/>
</g>
<g>
	<path fill="#FFFFFF" d="M218.986,146.234c4.177,2.139,10.595,4.279,17.217,4.279c7.131,0,10.9-2.954,10.9-7.437
		c0-4.279-3.26-6.723-11.511-9.677c-11.41-3.974-18.847-10.29-18.847-20.273c0-11.715,9.78-20.68,25.978-20.68
		c7.743,0,13.447,1.63,17.522,3.464l-3.464,12.53c-2.75-1.324-7.64-3.26-14.364-3.26s-9.984,3.056-9.984,6.621
		c0,4.381,3.871,6.317,12.734,9.678c12.124,4.483,17.828,10.798,17.828,20.476c0,11.511-8.863,21.291-27.709,21.291
		c-7.844,0-15.587-2.037-19.458-4.177L218.986,146.234z"/>
</g>
<text transform="matrix(1 0 0 1 173.1318 234.0806)" font-family="'MyriadPro-Bold'" font-size="48">S</text>
<text transform="matrix(1 0 0 1 199.0512 234.0806)" font-family="'MyriadPro-Bold'" font-size="48">K</text>
<text transform="matrix(1 0 0 1 227.8032 234.0806)" font-family="'MyriadPro-Bold'" font-size="48">Y</text>
<text transform="matrix(1 0 0 1 255.8837 234.0806)" font-family="'MyriadPro-Bold'" font-size="48">P</text>
<text transform="matrix(1 0 0 1 283.7714 234.0806)" font-family="'MyriadPro-Bold'" font-size="48">E</text>
</svg>
