<?xml version="1.0" encoding="utf-8"?>
<!-- Generator: Adobe Illustrator 17.0.0, SVG Export Plug-In . SVG Version: 6.00 Build 0)  -->
<!DOCTYPE svg PUBLIC "-//W3C//DTD SVG 1.1 Tiny//EN" "http://www.w3.org/Graphics/SVG/1.1/DTD/svg11-tiny.dtd">
<svg version="1.1" baseProfile="tiny" id="Layer_1" xmlns="http://www.w3.org/2000/svg" xmlns:xlink="http://www.w3.org/1999/xlink"
	 x="0px" y="0px" width="200px" height="118.75px" viewBox="0 0 200 118.75" xml:space="preserve">
<line fill="none" stroke="#AAAAAA" stroke-miterlimit="10" x1="12" y1="109.5" x2="185" y2="109.5"/>
<path fill="none" stroke="#000000" stroke-width="2" stroke-miterlimit="10" d="M189.696,103H7.394c0,0,2.478,10,10.173,10
	c7.105,0,61.652,0,78.638,0c0,0,1.863,0,5.034,0c16.982,0,71.503,0,78.608,0C187.541,113,189.696,103,189.696,103z"/>
<path fill="#FFFFFF" stroke="#000000" stroke-width="2" stroke-miterlimit="10" d="M171.749,103c0.505,0,2.251-1.734,2.251-2.833
	V10.089C174,6.698,169.795,4,166.405,4H29.884C26.493,4,23,6.698,23,10.089v90.078c0,1.098,1.034,2.833,1.539,2.833H171.749z"/>
<rect x="28.5" y="11.5" fill="none" stroke="#AAAAAA" stroke-miterlimit="10" width="139" height="87"/>
<circle fill="none" stroke="#000000" stroke-width="0.524" stroke-miterlimit="10" cx="98.617" cy="7.161" r="0.841"/>
<path fill="none" stroke="#AAAAAA" stroke-miterlimit="10" d="M86.114,104.069c0.18,0.856,1.19,2.431,2.416,2.431h20.384
	c1.225,0,2.245-1.501,2.425-2.356"/>
<g>
	<path fill="#ED1C24" d="M92.363,63c-1.569,0-3.491-1.904-4.272-3.265l-6.325-11.421c-0.781-1.361-0.781-3.785,0-5.146l6.325-10.859
		C88.872,30.947,90.795,30,92.363,30h12.623c1.569,0,3.491,0.848,4.272,2.209l6.325,10.893c0.781,1.361,0.781,3.521,0,4.882
		l-6.325,11.783c-0.781,1.361-2.703,3.232-4.272,3.232H92.363z"/>
	<g>
		<path d="M73.882,67.609c0.671-0.109,1.671-0.192,2.78-0.192c1.369,0,2.328,0.205,2.985,0.726c0.548,0.438,0.849,1.082,0.849,1.931
			c0,1.178-0.835,1.986-1.63,2.273v0.041c0.644,0.26,1,0.876,1.233,1.725c0.287,1.041,0.575,2.246,0.753,2.602h-2.136
			c-0.151-0.26-0.37-1.013-0.644-2.15c-0.246-1.15-0.643-1.465-1.493-1.479h-0.63v3.629h-2.068V67.609z M75.949,71.58h0.822
			c1.041,0,1.657-0.52,1.657-1.328c0-0.849-0.575-1.273-1.534-1.287c-0.507,0-0.794,0.041-0.945,0.069V71.58z"/>
		<path d="M87.492,72.812h-3.396v2.191h3.793v1.712h-5.888v-9.229h5.696v1.712h-3.601v1.917h3.396V72.812z"/>
		<path d="M96.091,76.454c-0.383,0.192-1.246,0.397-2.369,0.397c-3.191,0-4.834-1.985-4.834-4.615c0-3.149,2.246-4.902,5.039-4.902
			c1.082,0,1.903,0.219,2.273,0.411l-0.425,1.657c-0.425-0.178-1.013-0.342-1.753-0.342c-1.657,0-2.944,1-2.944,3.054
			c0,1.849,1.095,3.013,2.958,3.013c0.63,0,1.328-0.137,1.739-0.301L96.091,76.454z"/>
		<path d="M99.554,67.485v9.229h-2.095v-9.229H99.554z"/>
		<path d="M101.361,67.609c0.643-0.109,1.547-0.192,2.821-0.192c1.287,0,2.205,0.246,2.821,0.739
			c0.589,0.465,0.986,1.232,0.986,2.136c0,0.904-0.301,1.671-0.849,2.191c-0.712,0.671-1.767,0.972-2.999,0.972
			c-0.274,0-0.52-0.014-0.712-0.041v3.3h-2.068V67.609z M103.429,71.799c0.178,0.041,0.397,0.055,0.698,0.055
			c1.109,0,1.794-0.561,1.794-1.506c0-0.849-0.589-1.356-1.63-1.356c-0.424,0-0.712,0.041-0.863,0.082V71.799z"/>
		<path d="M114.808,72.812h-3.396v2.191h3.793v1.712h-5.888v-9.229h5.696v1.712h-3.601v1.917h3.396V72.812z"/>
		<path d="M116.696,74.565c0.561,0.288,1.424,0.575,2.314,0.575c0.959,0,1.465-0.397,1.465-1c0-0.575-0.438-0.904-1.547-1.301
			c-1.534-0.534-2.533-1.383-2.533-2.725c0-1.575,1.315-2.78,3.492-2.78c1.041,0,1.807,0.219,2.355,0.466l-0.466,1.684
			c-0.37-0.178-1.027-0.438-1.931-0.438c-0.904,0-1.342,0.411-1.342,0.89c0,0.589,0.52,0.849,1.712,1.301
			c1.629,0.603,2.396,1.451,2.396,2.752c0,1.547-1.191,2.862-3.725,2.862c-1.054,0-2.095-0.274-2.615-0.561L116.696,74.565z"/>
	</g>
	<g>
		<path fill="#CD1C24" d="M92.848,51.973c1.191,0.61,3.022,1.22,4.911,1.22c2.034,0,3.109-0.843,3.109-2.121
			c0-1.22-0.93-1.918-3.284-2.76c-3.255-1.134-5.376-2.935-5.376-5.783c0-3.342,2.79-5.899,7.41-5.899
			c2.209,0,3.836,0.465,4.998,0.988l-0.988,3.574c-0.784-0.378-2.179-0.93-4.097-0.93s-2.848,0.872-2.848,1.889
			c0,1.25,1.104,1.802,3.632,2.761c3.458,1.279,5.085,3.08,5.085,5.841c0,3.284-2.528,6.073-7.904,6.073
			c-2.238,0-4.446-0.581-5.55-1.191L92.848,51.973z"/>
	</g>
	<g>
		<path fill="#FFFFFF" d="M92.681,50.832c1.191,0.61,3.022,1.22,4.911,1.22c2.034,0,3.109-0.843,3.109-2.121
			c0-1.22-0.93-1.918-3.284-2.76c-3.255-1.134-5.376-2.935-5.376-5.783c0-3.342,2.79-5.899,7.41-5.899
			c2.209,0,3.836,0.465,4.998,0.988l-0.988,3.574c-0.784-0.378-2.179-0.93-4.097-0.93s-2.848,0.872-2.848,1.889
			c0,1.25,1.104,1.802,3.632,2.761c3.458,1.279,5.085,3.08,5.085,5.841c0,3.284-2.528,6.073-7.904,6.073
			c-2.238,0-4.446-0.581-5.55-1.191L92.681,50.832z"/>
	</g>
</g>
</svg>
