<?xml version="1.0" encoding="utf-8"?>
<!-- Generator: Adobe Illustrator 17.0.0, SVG Export Plug-In . SVG Version: 6.00 Build 0)  -->
<!DOCTYPE svg PUBLIC "-//W3C//DTD SVG 1.1 Tiny//EN" "http://www.w3.org/Graphics/SVG/1.1/DTD/svg11-tiny.dtd">
<svg version="1.1" baseProfile="tiny" id="Layer_1" xmlns="http://www.w3.org/2000/svg" xmlns:xlink="http://www.w3.org/1999/xlink"
	 x="0px" y="0px" width="50px" height="50px" viewBox="0 0 50 50" xml:space="preserve">
<g>
	<path fill="#ED1C24" d="M16.218,48c-2.183,0-4.858-1.93-5.945-3.824L1.471,28.643c-1.086-1.894-1.086-5.088,0-6.981l8.802-15.281
		C11.359,4.488,14.034,3,16.218,3h17.565c2.183,0,4.858,1.44,5.945,3.334l8.802,15.288c1.086,1.894,1.086,4.965,0,6.859
		l-8.802,15.71C38.641,46.084,35.966,48,33.782,48H16.218z"/>
	<g>
		<path fill="#CD1C24" d="M16.892,34.095c1.658,0.849,4.206,1.698,6.834,1.698c2.831,0,4.327-1.173,4.327-2.952
			c0-1.698-1.294-2.669-4.569-3.841c-4.529-1.577-7.481-4.084-7.481-8.047c0-4.65,3.882-8.209,10.312-8.209
			c3.073,0,5.338,0.647,6.955,1.375l-1.375,4.974c-1.092-0.526-3.033-1.294-5.702-1.294s-3.963,1.213-3.963,2.628
			c0,1.739,1.537,2.507,5.055,3.842c4.812,1.779,7.077,4.286,7.077,8.128c0,4.569-3.518,8.451-10.999,8.451
			c-3.114,0-6.187-0.809-7.724-1.658L16.892,34.095z"/>
	</g>
	<g>
		<path fill="#FFFFFF" d="M16.892,32.507c1.658,0.849,4.206,1.698,6.834,1.698c2.831,0,4.327-1.173,4.327-2.952
			c0-1.698-1.294-2.669-4.569-3.841c-4.529-1.577-7.481-4.084-7.481-8.047c0-4.65,3.882-8.209,10.312-8.209
			c3.073,0,5.338,0.647,6.955,1.375l-1.375,4.974c-1.092-0.526-3.033-1.294-5.702-1.294s-3.963,1.213-3.963,2.628
			c0,1.739,1.537,2.507,5.055,3.842c4.812,1.779,7.077,4.286,7.077,8.128c0,4.569-3.518,8.451-10.999,8.451
			c-3.114,0-6.187-0.809-7.724-1.658L16.892,32.507z"/>
	</g>
</g>
</svg>
